PathFileType	4	(X/Y/Z)	C:\Users\WrightLab\Desktop\Jo\P5V129.trc
DataRate	CameraRate	NumFrames	NumMarkers	Units	OrigDataRate	OrigDataStartFrame	OrigNumFrames
100.00	100.00	       14	19	mm	100.00	252	       671
Frame#	Time	Headset_Front			Headset_Back			Headset_Left			Headset_Right			Left_Shoulder			Right_Shoulder			Sternum			C7			Left Elbow			Right Elbow			Left Wrist			Right Wrist			Left ASIS			Right ASIS			S2			Left Knee			Right Knee			Left Ankle			Right Ankle			
		X1	Y1	Z1	X2	Y2	Z2	X3	Y3	Z3	X4	Y4	Z4	X5	Y5	Z5	X6	Y6	Z6	X7	Y7	Z7	X8	Y8	Z8	X9	Y9	Z9	X10	Y10	Z10	X11	Y11	Z11	X12	Y12	Z12	X13	Y13	Z13	X14	Y14	Z14	X15	Y15	Z15	X16	Y16	Z16	X17	Y17	Z17	X18	Y18	Z18	X19	Y19	Z19	

252	2.510	66.50181	1900.72144	2587.30322	-734.49683	1665.55798	1029.59607							-877.90942	1518.71765	1144.28162	-469.51709	1461.11597	1204.09973	-659.64697	1328.32410	1102.46008	-682.63373	1544.30115	1298.59412	-993.25653	1250.84644	1106.21643	-365.75293	1200.36255	1278.20215	-961.54364	1073.78931	943.01190	-350.01041	1065.70142	1079.51172	-814.30164	942.29474	1090.10706	-541.14844	949.35144	1178.01184	-809.28351	1005.33112	1376.22473	-893.04645	541.82098	1072.25574	-579.03870	495.01617	1261.82227	-909.38202	137.19359	969.25488	-688.05481	144.74001	1499.30237	
253	2.520	-507.25064	1608.99866	1038.17786	-732.92603	1664.50256	1021.01294							-877.20313	1517.53821	1133.99756	-468.55881	1460.81055	1195.29370	-658.21661	1326.92200	1094.87708	-682.74902	1543.22681	1289.95850	-992.48798	1250.58118	1093.24182	-367.51810	1199.06628	1275.33350	-957.52417	1073.71057	929.12573	-351.56329	1062.83032	1076.62366	-812.67242	941.27814	1079.51587	-540.15234	948.43951	1171.24084	-810.69769	1004.10352	1366.92505	-891.81897	539.97058	1062.27075	-580.26465	494.39816	1256.88782	-900.82172	135.77553	953.57025	-688.12396	145.78865	1499.15552	
254	2.530	-731.09265	1663.25159	1012.34723	-505.20645	1607.55786	1030.61157							-876.82581	1516.47949	1123.83484	-467.77798	1459.48035	1188.75732				-683.33539	1542.25134	1281.33240	-990.30475	1249.27905	1079.95227	-370.20804	1197.23010	1271.47717	-953.62787	1074.90027	914.40979	-353.04083	1059.57825	1074.16223	-810.55884	940.36975	1069.62976	-539.36096	947.45282	1163.23816				-889.51483	537.37469	1051.19141	-580.93341	493.00208	1251.35522	-892.73389	135.06737	938.64709	-688.20862	147.46338	1497.36023	
255	2.540	-728.96539	1661.84497	1003.65735	-503.15158	1605.70752	1023.28235							-872.69543	1512.76489	1114.16382	-467.08527	1458.12158	1181.61194	-655.34601	1325.59814	1076.23352	-683.16144	1540.77307	1272.60559	-988.48346	1248.64880	1066.65613	-373.06992	1195.22375	1267.76160	-949.49591	1075.43884	900.75964	-354.23474	1056.93909	1072.02014	-808.42334	939.19934	1058.92297	-538.61987	945.53497	1155.88025	-813.48163	1002.22278	1347.42798	-887.34125	536.11725	1039.85950	-581.61920	493.57254	1245.48132	-884.64923	133.28206	925.75970	-688.53400	149.21155	1495.77344	
256	2.550	-501.34790	1604.85168	1016.74500	-726.73267	1660.36475	994.87750							-873.54132	1513.79614	1103.21606	-466.56320	1456.48425	1174.70166	-654.12158	1323.80347	1070.00391	-683.90033	1539.57703	1263.89282	-987.02295	1248.05994	1053.30408	-376.71692	1192.37744	1264.66895	-945.49921	1075.82239	886.23926	-355.18015	1054.37366	1069.68921	-806.20538	938.33392	1048.35681	-537.27246	945.39374	1147.80469	-814.51337	1000.78882	1337.26489	-884.60779	534.69580	1028.87000	-582.63397	491.36752	1239.56226	-877.83032	131.07466	915.80945	-688.79675	151.34734	1494.46155	
257	2.560	-724.70251	1659.00684	986.18555	-499.52185	1603.69263	1010.45752							-873.09192	1512.79761	1093.13684	-466.06912	1456.18140	1166.11548	-653.18073	1321.63770	1058.48828	-683.60596	1537.88428	1255.12439	-985.41864	1247.35730	1040.04028	-380.07620	1190.79211	1261.75281	-941.11804	1077.13831	872.18353	-355.87112	1051.85266	1067.32959	-803.45123	936.81982	1037.30420	-536.18988	944.17950	1140.47351	-815.37494	999.23364	1326.87659	-881.03876	533.00922	1017.80688	-584.81018	490.02267	1235.95288	-871.29797	128.82852	906.42963	-689.16382	153.17099	1492.14624	
258	2.570	-722.56842	1657.62903	977.39349	-497.36328	1602.03418	1003.13879							-872.92859	1511.91113	1083.15759	-465.91211	1454.38599	1158.53650	-651.96619	1321.31494	1050.12805	-684.32501	1536.40125	1246.47485	-983.63568	1246.93054	1026.59521	-383.89026	1188.78796	1258.43921	-936.46649	1078.36243	858.41248	-357.51221	1050.20288	1065.14026	-800.68597	935.91052	1026.74963	-534.81494	943.57587	1132.55042	-815.82190	997.07483	1316.14600	-877.48389	531.86682	1006.90338	-584.90875	490.60760	1225.49121	-865.35999	125.67845	899.10486	-689.65656	155.64909	1491.11169	
259	2.580	-495.24338	1600.02454	995.89886	-720.29761	1656.10461	968.64124							-870.99438	1510.40576	1072.65393	-465.53549	1452.73181	1151.60706	-650.79425	1320.73022	1039.10425	-684.54578	1534.63135	1237.73389	-981.10712	1245.98682	1013.01782	-387.52557	1187.38660	1255.85278	-930.85846	1078.25330	843.38354	-357.88516	1047.76746	1063.82263	-797.87762	934.46033	1014.94293	-533.74615	942.35803	1124.05334	-815.90179	994.77588	1305.21643	-873.66296	529.78638	995.10870	-586.00781	490.02423	1219.87793	-860.57965	122.20914	893.96277	-690.08112	158.70425	1487.51282	
260	2.590	-717.87659	1654.50745	959.75177	-493.27756	1598.28992	989.25134							-869.71136	1509.38684	1062.22961	-465.23151	1450.94299	1145.60620	-649.79877	1318.88635	1033.04126	-685.13904	1532.70886	1229.01245	-978.47821	1244.95154	999.38806	-392.03265	1184.95789	1252.25708	-926.37897	1079.38562	828.86713	-358.56113	1045.59460	1062.01416	-795.97961	934.18451	1003.00323	-532.43927	941.15356	1115.36841	-816.25427	992.70129	1293.97937	-869.47638	527.95758	984.03870	-588.48108	488.92377	1214.64795	-856.75995	118.39189	889.67242	-690.49707	161.06453	1483.59204	
261	2.600	-715.44208	1652.82263	951.01263	-491.21472	1596.34497	982.39270							-868.92572	1508.27917	1051.72815	-464.90796	1449.02637	1139.73413	-648.67804	1317.61267	1021.62964	-685.58118	1530.67297	1220.22339	-976.03107	1244.31982	985.74475	-396.44391	1183.27490	1250.01245	-921.19550	1080.85107	814.87360	-360.12903	1042.64575	1060.67529	-793.11987	933.20856	990.88843	-531.39490	938.89984	1107.09558	-815.68365	989.96869	1282.56616	-864.96600	525.96301	973.66638	-589.82587	487.64749	1207.62244	-854.39667	115.07057	885.91675	-690.93219	164.22873	1481.48303	
262	2.610	-489.24353	1594.59900	975.37958	-712.97693	1651.13953	942.18634							-868.80243	1507.36292	1041.24829	-465.16281	1447.18433	1131.33557	-647.31818	1316.13684	1013.24017	-686.12854	1528.36072	1211.52136	-973.69104	1243.21558	972.01581	-400.61960	1181.05713	1246.96912	-916.27539	1081.71619	800.89459	-360.36615	1041.22424	1058.81360	-790.11926	931.36737	977.92487	-529.91528	938.49695	1096.58850	-815.09698	987.02399	1270.97876	-861.59534	523.67834	962.97400	-591.23682	487.30756	1200.68457	-852.22467	112.45119	880.81549	-691.54852	167.88815	1478.46289	
263	2.620	-710.52295	1649.60388	933.43195	-487.27747	1592.35559	968.90887							-866.51221	1505.54236	1030.12646	-465.36035	1443.88757	1123.57520	-645.66211	1315.40796	1002.13519	-686.91180	1526.31006	1202.89905	-972.06702	1243.00867	958.38983	-404.45627	1179.37341	1245.13489	-910.46045	1082.87903	785.45319	-360.01389	1039.64856	1056.94958	-787.40680	929.98297	964.50964	-528.27820	936.75354	1086.17224	-814.31512	983.97162	1259.46423	-857.65363	520.44940	951.30969	-592.55994	487.46890	1191.56628	-850.22900	110.23200	876.04468	-691.90118	171.51852	1474.50696	
264	2.630	-708.08282	1648.31958	924.60706	-485.08414	1590.15271	961.63776							-865.17719	1504.36548	1019.11902	-465.29761	1441.71460	1118.02368	-644.05011	1313.56165	995.90875	-687.49585	1524.20313	1194.18030	-969.99158	1241.92639	944.49603	-408.38962	1177.12451	1242.07593	-904.94537	1083.87146	770.84149	-361.10474	1037.36926	1055.37024	-784.83716	929.20190	951.55133	-526.91351	935.24933	1074.66809	-813.82025	981.12695	1247.92578	-853.45288	516.63062	940.58557	-593.70062	486.97775	1182.71350	-848.37799	108.57143	873.67206	-692.43109	175.95827	1469.05164	
265	2.640	-483.39886	1589.58032	956.32965	-705.36426	1647.24768	915.47632							-863.90363	1503.26062	1008.11200	-465.14175	1439.51392	1113.41003	-642.37378	1312.46729	984.46796	-688.35638	1522.94788	1185.31702	-967.62708	1241.09753	930.37683	-412.49026	1174.55591	1239.21069	-899.05206	1085.59131	755.32031	-361.77124	1035.00671	1053.48645	-781.82898	927.75354	936.91089	-525.32635	933.62512	1064.17786	-812.93549	978.16724	1236.29395	-849.20697	513.53564	929.57910	-594.98950	486.35532	1175.21912	-847.45172	108.41083	871.48059	-693.01282	180.90085	1462.02112	
